<svg width="16" height="12" viewBox="0 0 16 12" fill="none" xmlns="http://www.w3.org/2000/svg">
<g clip-path="url(#clip0_537_2507)">
<rect width="16" height="12" fill="white"/>
<path fill-rule="evenodd" clip-rule="evenodd" d="M0 0V12H16V0H0Z" fill="#4EC7EE"/>
<mask id="mask0_537_2507" style="mask-type:luminance" maskUnits="userSpaceOnUse" x="0" y="0" width="16" height="12">
<path fill-rule="evenodd" clip-rule="evenodd" d="M0 0V12H16V0H0Z" fill="white"/>
</mask>
<g mask="url(#mask0_537_2507)">
<path d="M2.0448 11.6185C2.01306 11.8535 2.16359 12.0209 2.4161 12.1286C2.75556 12.2734 3.09808 12.1378 3.41315 11.7887L3.00485 11.4202C2.86489 11.5753 2.76375 11.635 2.68568 11.634C2.83855 11.5248 3.0344 11.39 3.27297 11.2298L3.38747 11.0639C3.47944 10.6694 3.19347 10.4557 2.75735 10.4557C2.50047 10.4557 2.2951 10.5065 2.1648 10.6157C1.95074 10.7952 1.98738 11.0818 2.21266 11.2308C2.23053 11.2427 2.24866 11.2533 2.26704 11.2628C2.14067 11.3695 2.06354 11.4797 2.0448 11.6185Z" fill="#FFE402"/>
<path d="M2.28223 11.2477C2.28223 11.2477 2.34462 11.1094 2.31342 11.0375" stroke="#FFE402" stroke-width="0.55"/>
<path d="M4.28431 11.6185C4.31604 11.8535 4.16551 12.0209 3.913 12.1286C3.57354 12.2734 3.23102 12.1378 2.91595 11.7887L3.32425 11.4202C3.46421 11.5753 3.56535 11.635 3.64342 11.634C3.49056 11.5248 3.2947 11.39 3.05613 11.2298L2.94163 11.0639C2.84966 10.6694 3.13563 10.4557 3.57175 10.4557C3.82863 10.4557 4.034 10.5065 4.1643 10.6157C4.37837 10.7952 4.34172 11.0818 4.11644 11.2308C4.09858 11.2427 4.08044 11.2533 4.06206 11.2628C4.18843 11.3695 4.26556 11.4797 4.28431 11.6185Z" fill="#FFE402"/>
<path d="M4.29785 11.1346L3.79652 11.3608C3.72615 11.2049 3.70512 11.0632 3.76368 10.9281L4.2683 11.1469C4.28526 11.1078 4.28503 11.1062 4.29785 11.1346Z" fill="#FFE402"/>
<path d="M2.0448 0.381515C2.01306 0.146515 2.16359 -0.0208689 2.4161 -0.128597C2.75556 -0.273418 3.09808 -0.137807 3.41315 0.211299L3.00485 0.579793C2.86489 0.424716 2.76375 0.364968 2.68568 0.365984C2.83855 0.475194 3.0344 0.610014 3.27297 0.770225L3.38747 0.936087C3.47944 1.33058 3.19347 1.54435 2.75735 1.54435C2.50047 1.54435 2.2951 1.49352 2.1648 1.38427C1.95074 1.20478 1.98738 0.918255 2.21266 0.769187C2.23053 0.757363 2.24866 0.746722 2.26704 0.737241C2.14067 0.63052 2.06354 0.520342 2.0448 0.381515Z" fill="#FFE402"/>
<path d="M4.28431 0.381515C4.31604 0.146515 4.16551 -0.0208689 3.913 -0.128597C3.57354 -0.273418 3.23102 -0.137807 2.91595 0.211299L3.32425 0.579793C3.46421 0.424716 3.56535 0.364968 3.64342 0.365984C3.49056 0.475194 3.2947 0.610014 3.05613 0.770225L2.94163 0.936087C2.84966 1.33058 3.13563 1.54435 3.57175 1.54435C3.82863 1.54435 4.034 1.49352 4.1643 1.38427C4.37837 1.20478 4.34172 0.918255 4.11644 0.769187C4.09858 0.757363 4.08044 0.746722 4.06206 0.737241C4.18843 0.63052 4.26556 0.520342 4.28431 0.381515Z" fill="#FFE402"/>
<path fill-rule="evenodd" clip-rule="evenodd" d="M2.54692 10.0315C2.23141 10.0406 2.0351 10.1057 2.0351 10.4098C2.0351 10.7452 2.36092 10.8501 2.70757 10.8501C3.02158 10.8501 3.37533 10.6552 3.37533 10.3062C3.37533 10.0938 3.10536 9.66536 2.42554 8.73651C2.40198 8.71457 2.389 8.70339 2.37861 8.70331C2.41984 8.68036 2.49244 8.65348 2.58824 8.65348C2.6215 8.65348 2.66472 8.6703 2.70757 8.69185V9.05613H3.4273V8.78113C3.4273 8.47044 2.96802 8.10348 2.58824 8.10348C2.25656 8.10348 1.99029 8.26125 1.85542 8.48824C1.72213 8.71256 1.82405 8.92789 2.01547 9.09917C2.30031 9.49202 2.52147 9.81721 2.66018 10.0309C2.60922 10.0304 2.58124 10.0305 2.54692 10.0315ZM2.58072 10.2851C2.57074 10.2829 2.56114 10.2804 2.55217 10.2778C2.55885 10.2848 2.5851 10.3161 2.5851 10.4098C2.5851 10.4608 2.58265 10.4967 2.57935 10.5219C2.48656 10.44 2.46062 10.2973 2.52852 10.1875L2.5302 10.1847L2.51985 10.1642C2.52122 10.1635 2.5226 10.1628 2.52395 10.1621C2.53994 10.1538 2.55308 10.1471 2.5302 10.1847L2.58072 10.2851ZM2.55217 10.2778L2.54264 10.2749C2.54367 10.2753 2.54501 10.2759 2.54658 10.2769L2.55217 10.2778ZM2.82534 10.3062C2.82534 10.2968 2.82214 10.2912 2.81663 10.2882L2.81983 10.2917C2.82348 10.2992 2.82534 10.3041 2.82534 10.3062Z" fill="#FFE402"/>
<path fill-rule="evenodd" clip-rule="evenodd" d="M3.78316 10.0315C4.09867 10.0406 4.29498 10.1057 4.29498 10.4098C4.29498 10.7452 3.96915 10.8501 3.62251 10.8501C3.3085 10.8501 2.95474 10.6552 2.95474 10.3062C2.95474 10.0938 3.22472 9.66536 3.90454 8.73651C3.9281 8.71457 3.94108 8.70339 3.95147 8.70331C3.91024 8.68036 3.83764 8.65348 3.74184 8.65348C3.70858 8.65348 3.66535 8.6703 3.62251 8.69185V9.05613H2.90277V8.78113C2.90277 8.47044 3.36206 8.10348 3.74184 8.10348C4.07351 8.10348 4.33979 8.26125 4.47466 8.48824C4.60795 8.71256 4.50603 8.92789 4.31461 9.09917C4.02977 9.49202 3.8086 9.81721 3.6699 10.0309C3.72086 10.0304 3.74884 10.0305 3.78316 10.0315ZM3.74935 10.2851C3.75933 10.2829 3.76893 10.2804 3.77791 10.2778C3.77123 10.2848 3.74498 10.3161 3.74498 10.4098C3.74498 10.4608 3.74743 10.4967 3.75073 10.5219C3.84352 10.44 3.86946 10.2973 3.80156 10.1875L3.79988 10.1847L3.81023 10.1642C3.80886 10.1635 3.80748 10.1628 3.80613 10.1621C3.79014 10.1538 3.777 10.1471 3.79988 10.1847L3.74935 10.2851ZM3.77791 10.2778L3.78744 10.2749C3.78641 10.2753 3.78507 10.2759 3.78349 10.2769L3.77791 10.2778ZM3.50474 10.3062C3.50474 10.2968 3.50794 10.2912 3.51345 10.2882L3.51025 10.2917C3.5066 10.2992 3.50474 10.3041 3.50474 10.3062Z" fill="#FFE402"/>
<path fill-rule="evenodd" clip-rule="evenodd" d="M2.54692 6.67737C2.23141 6.66828 2.0351 6.6032 2.0351 6.29906C2.0351 5.96369 2.36092 5.85876 2.70757 5.85876C3.02158 5.85876 3.37533 6.05366 3.37533 6.40269C3.37533 6.61502 3.10536 7.0435 2.42554 7.97235C2.40198 7.99429 2.389 8.00548 2.37861 8.00555C2.41984 8.0285 2.49244 8.05539 2.58824 8.05539C2.6215 8.05539 2.66472 8.03856 2.70757 8.01701V7.65273H3.4273V7.92773C3.4273 8.23843 2.96802 8.60539 2.58824 8.60539C2.25656 8.60539 1.99029 8.44761 1.85542 8.22062C1.72213 7.9963 1.82405 7.78097 2.01547 7.60969C2.30031 7.21684 2.52147 6.89166 2.66018 6.678C2.60922 6.67842 2.58124 6.67835 2.54692 6.67737ZM2.58072 6.42377C2.57074 6.42599 2.56114 6.42842 2.55217 6.43102C2.55885 6.42402 2.5851 6.39273 2.5851 6.29906C2.5851 6.24807 2.58265 6.21219 2.57935 6.18697C2.48656 6.26883 2.46062 6.41153 2.52852 6.52138L2.5302 6.52412L2.51985 6.54469C2.52122 6.54538 2.5226 6.54609 2.52395 6.54679C2.53994 6.55502 2.55308 6.56178 2.5302 6.52412L2.58072 6.42377ZM2.55217 6.43102L2.54264 6.43394C2.54367 6.43361 2.54501 6.43297 2.54658 6.43195L2.55217 6.43102ZM2.82534 6.40269C2.82534 6.41208 2.82214 6.41766 2.81663 6.42065L2.81983 6.41714C2.82348 6.40962 2.82534 6.40477 2.82534 6.40269Z" fill="#FFE402"/>
<path fill-rule="evenodd" clip-rule="evenodd" d="M3.78316 6.67737C4.09867 6.66828 4.29498 6.6032 4.29498 6.29906C4.29498 5.96369 3.96915 5.85876 3.62251 5.85876C3.3085 5.85876 2.95474 6.05366 2.95474 6.40269C2.95474 6.61502 3.22472 7.0435 3.90454 7.97235C3.9281 7.99429 3.94108 8.00548 3.95147 8.00555C3.91024 8.0285 3.83764 8.05539 3.74184 8.05539C3.70858 8.05539 3.66535 8.03856 3.62251 8.01701V7.65273H2.90277V7.92773C2.90277 8.23843 3.36206 8.60539 3.74184 8.60539C4.07351 8.60539 4.33979 8.44761 4.47466 8.22062C4.60795 7.9963 4.50603 7.78097 4.31461 7.60969C4.02977 7.21684 3.8086 6.89166 3.6699 6.678C3.72086 6.67842 3.74884 6.67835 3.78316 6.67737ZM3.74935 6.42377C3.75933 6.42599 3.76893 6.42842 3.77791 6.43102C3.77123 6.42402 3.74498 6.39273 3.74498 6.29906C3.74498 6.24807 3.74743 6.21219 3.75073 6.18697C3.84352 6.26883 3.86946 6.41153 3.80156 6.52138L3.79988 6.52412L3.81023 6.54469C3.80886 6.54538 3.80748 6.54609 3.80613 6.54679C3.79014 6.55502 3.777 6.56178 3.79988 6.52412L3.74935 6.42377ZM3.77791 6.43102L3.78744 6.43394C3.78641 6.43361 3.78507 6.43297 3.78349 6.43195L3.77791 6.43102ZM3.50474 6.40269C3.50474 6.41208 3.50794 6.41766 3.51345 6.42065L3.51025 6.41714C3.5066 6.40962 3.50474 6.40477 3.50474 6.40269Z" fill="#FFE402"/>
<path fill-rule="evenodd" clip-rule="evenodd" d="M2.54692 5.32265C2.23141 5.33173 2.0351 5.39681 2.0351 5.70095C2.0351 6.03633 2.36092 6.14125 2.70757 6.14125C3.02158 6.14125 3.37533 5.94636 3.37533 5.59733C3.37533 5.38499 3.10536 4.95651 2.42554 4.02767C2.40198 4.00572 2.389 3.99454 2.37861 3.99447C2.41984 3.97151 2.49244 3.94463 2.58824 3.94463C2.6215 3.94463 2.66472 3.96145 2.70757 3.983V4.34728H3.4273V4.07228C3.4273 3.76159 2.96802 3.39463 2.58824 3.39463C2.25656 3.39463 1.99029 3.55241 1.85542 3.77939C1.72213 4.00371 1.82405 4.21905 2.01547 4.39032C2.30031 4.78318 2.52147 5.10836 2.66018 5.32202C2.60922 5.32159 2.58124 5.32166 2.54692 5.32265ZM2.58072 5.57624C2.57074 5.57402 2.56114 5.5716 2.55217 5.56899C2.55885 5.576 2.5851 5.60729 2.5851 5.70095C2.5851 5.75195 2.58265 5.78782 2.57935 5.81305C2.48656 5.73119 2.46062 5.58848 2.52852 5.47864L2.5302 5.47589L2.51985 5.45533C2.52122 5.45463 2.5226 5.45393 2.52395 5.45323C2.53994 5.445 2.55308 5.43823 2.5302 5.47589L2.58072 5.57624ZM2.55217 5.56899L2.54264 5.56608C2.54367 5.56641 2.54501 5.56704 2.54658 5.56806L2.55217 5.56899ZM2.82534 5.59733C2.82534 5.58794 2.82214 5.58236 2.81663 5.57937L2.81983 5.58287C2.82348 5.59039 2.82534 5.59525 2.82534 5.59733Z" fill="#FFE402"/>
<path fill-rule="evenodd" clip-rule="evenodd" d="M3.78316 5.32265C4.09867 5.33173 4.29498 5.39681 4.29498 5.70095C4.29498 6.03633 3.96915 6.14125 3.62251 6.14125C3.3085 6.14125 2.95474 5.94636 2.95474 5.59733C2.95474 5.38499 3.22472 4.95651 3.90454 4.02767C3.9281 4.00572 3.94108 3.99454 3.95147 3.99447C3.91024 3.97151 3.83764 3.94463 3.74184 3.94463C3.70858 3.94463 3.66535 3.96145 3.62251 3.983V4.34728H2.90277V4.07228C2.90277 3.76159 3.36206 3.39463 3.74184 3.39463C4.07351 3.39463 4.33979 3.55241 4.47466 3.77939C4.60795 4.00371 4.50603 4.21905 4.31461 4.39032C4.02977 4.78318 3.8086 5.10836 3.6699 5.32202C3.72086 5.32159 3.74884 5.32166 3.78316 5.32265ZM3.74935 5.57624C3.75933 5.57402 3.76893 5.5716 3.77791 5.56899C3.77123 5.576 3.74498 5.60729 3.74498 5.70095C3.74498 5.75195 3.74743 5.78782 3.75073 5.81305C3.84352 5.73119 3.86946 5.58848 3.80156 5.47864L3.79988 5.47589L3.81023 5.45533C3.80886 5.45463 3.80748 5.45393 3.80613 5.45323C3.79014 5.445 3.777 5.43823 3.79988 5.47589L3.74935 5.57624ZM3.77791 5.56899L3.78744 5.56608C3.78641 5.56641 3.78507 5.56704 3.78349 5.56806L3.77791 5.56899ZM3.50474 5.59733C3.50474 5.58794 3.50794 5.58236 3.51345 5.57937L3.51025 5.58287C3.5066 5.59039 3.50474 5.59525 3.50474 5.59733Z" fill="#FFE402"/>
<path fill-rule="evenodd" clip-rule="evenodd" d="M2.54692 1.9685C2.23141 1.95942 2.0351 1.89434 2.0351 1.5902C2.0351 1.25483 2.36092 1.1499 2.70757 1.1499C3.02158 1.1499 3.37533 1.34479 3.37533 1.69382C3.37533 1.90616 3.10536 2.33464 2.42554 3.26349C2.40198 3.28543 2.389 3.29661 2.37861 3.29669C2.41984 3.31964 2.49244 3.34652 2.58824 3.34652C2.6215 3.34652 2.66472 3.3297 2.70757 3.30815V2.94387H3.4273V3.21887C3.4273 3.52956 2.96802 3.89652 2.58824 3.89652C2.25656 3.89652 1.99029 3.73875 1.85542 3.51176C1.72213 3.28744 1.82405 3.07211 2.01547 2.90083C2.30031 2.50798 2.52147 2.18279 2.66018 1.96913C2.60922 1.96956 2.58124 1.96949 2.54692 1.9685ZM2.58072 1.71491C2.57074 1.71713 2.56114 1.71956 2.55217 1.72216C2.55885 1.71516 2.5851 1.68386 2.5851 1.5902C2.5851 1.53921 2.58265 1.50333 2.57935 1.47811C2.48656 1.55997 2.46062 1.70267 2.52852 1.81252L2.5302 1.81526L2.51985 1.83583C2.52122 1.83652 2.5226 1.83723 2.52395 1.83792C2.53994 1.84616 2.55308 1.85292 2.5302 1.81526L2.58072 1.71491ZM2.55217 1.72216L2.54264 1.72508C2.54367 1.72474 2.54501 1.72411 2.54658 1.72309L2.55217 1.72216ZM2.82534 1.69382C2.82534 1.70321 2.82214 1.7088 2.81663 1.71179L2.81983 1.70828C2.82348 1.70076 2.82534 1.6959 2.82534 1.69382Z" fill="#FFE402"/>
<path fill-rule="evenodd" clip-rule="evenodd" d="M3.78316 1.9685C4.09867 1.95942 4.29498 1.89434 4.29498 1.5902C4.29498 1.25483 3.96915 1.1499 3.62251 1.1499C3.3085 1.1499 2.95474 1.34479 2.95474 1.69382C2.95474 1.90616 3.22472 2.33464 3.90454 3.26349C3.9281 3.28543 3.94108 3.29661 3.95147 3.29669C3.91024 3.31964 3.83764 3.34652 3.74184 3.34652C3.70858 3.34652 3.66535 3.3297 3.62251 3.30815V2.94387H2.90277V3.21887C2.90277 3.52956 3.36206 3.89652 3.74184 3.89652C4.07351 3.89652 4.33979 3.73875 4.47466 3.51176C4.60795 3.28744 4.50603 3.07211 4.31461 2.90083C4.02977 2.50798 3.8086 2.18279 3.6699 1.96913C3.72086 1.96956 3.74884 1.96949 3.78316 1.9685ZM3.74935 1.71491C3.75933 1.71713 3.76893 1.71956 3.77791 1.72216C3.77123 1.71516 3.74498 1.68386 3.74498 1.5902C3.74498 1.53921 3.74743 1.50333 3.75073 1.47811C3.84352 1.55997 3.86946 1.70267 3.80156 1.81252L3.79988 1.81526L3.81023 1.83583C3.80886 1.83652 3.80748 1.83723 3.80613 1.83792C3.79014 1.84616 3.777 1.85292 3.79988 1.81526L3.74935 1.71491ZM3.77791 1.72216L3.78744 1.72508C3.78641 1.72474 3.78507 1.72411 3.78349 1.72309L3.77791 1.72216ZM3.50474 1.69382C3.50474 1.70321 3.50794 1.7088 3.51345 1.71179L3.51025 1.70828C3.5066 1.70076 3.50474 1.6959 3.50474 1.69382Z" fill="#FFE402"/>
<path fill-rule="evenodd" clip-rule="evenodd" d="M9.49317 1.39241L9.6979 2.15627C9.6979 2.15627 9.70031 2.32981 9.50425 2.32981C9.3082 2.32981 9.29831 2.15627 9.29831 2.15627L9.49317 1.39241ZM11.225 4.31C11.225 5.30411 10.4661 6.11 9.52999 6.11C8.59386 6.11 7.83499 5.30411 7.83499 4.31C7.83499 3.31589 8.59386 2.51 9.52999 2.51C10.4661 2.51 11.225 3.31589 11.225 4.31ZM10.2904 2.3103L10.318 1.51997L9.9083 2.19347C9.9083 2.19347 9.86702 2.36232 10.0545 2.41964C10.242 2.47696 10.2904 2.3103 10.2904 2.3103ZM11.0701 1.89422L10.8127 2.64197C10.8127 2.64197 10.7177 2.78719 10.5551 2.67755C10.3926 2.56792 10.4814 2.41852 10.4814 2.41852L11.0701 1.89422ZM11.2182 3.12181L11.683 2.482L10.9667 2.81128C10.9667 2.81128 10.8381 2.92817 10.9615 3.08054C11.0848 3.2329 11.2182 3.12181 11.2182 3.12181ZM12.1053 3.2388L11.4656 3.70367C11.4656 3.70367 11.3044 3.76811 11.2341 3.58508C11.1639 3.40205 11.3224 3.33062 11.3224 3.33062L12.1053 3.2388ZM11.5437 4.34114L12.2914 4.08363L11.5159 3.94253C11.5159 3.94253 11.3434 3.9645 11.3571 4.16007C11.3708 4.35565 11.5437 4.34114 11.5437 4.34114ZM12.2301 4.94797L11.4397 4.97562C11.4397 4.97562 11.2701 4.93892 11.3142 4.74789C11.3583 4.55686 11.5296 4.58627 11.5296 4.58627L12.2301 4.94797ZM11.1627 5.55059L11.9266 5.75522L11.3625 5.20453C11.3625 5.20453 11.2073 5.12632 11.1093 5.29611C11.0112 5.4659 11.1627 5.55059 11.1627 5.55059ZM11.408 6.43384L10.7373 6.01481C10.7373 6.01481 10.6172 5.88953 10.7606 5.75582C10.904 5.62211 11.0296 5.74229 11.0296 5.74229L11.408 6.43384ZM10.2013 6.32689L10.7201 6.92369L10.5604 6.15172C10.5604 6.15172 10.4754 6.00007 10.2992 6.08602C10.123 6.17196 10.2013 6.32689 10.2013 6.32689ZM9.92399 7.18137L9.60229 6.45894C9.60229 6.45894 9.57276 6.28791 9.7664 6.25724C9.96004 6.22657 9.99696 6.39643 9.99696 6.39643L9.92399 7.18137ZM8.99931 6.39644L9.08202 7.18292L9.39398 6.45895C9.39398 6.45895 9.41136 6.28599 9.21772 6.25532C9.02408 6.22466 8.99931 6.39644 8.99931 6.39644ZM8.28501 6.92803L8.43585 6.15173C8.43585 6.15173 8.50977 5.9947 8.68598 6.08064C8.86219 6.16659 8.795 6.3269 8.795 6.3269L8.28501 6.92803ZM7.96671 5.74231L7.59549 6.44058L8.25895 6.01483C8.25895 6.01483 8.37008 5.88117 8.22669 5.74746C8.0833 5.61375 7.96671 5.74231 7.96671 5.74231ZM7.07456 5.76378L7.63372 5.20456C7.63372 5.20456 7.78281 5.1157 7.88083 5.28549C7.97886 5.45528 7.83351 5.55061 7.83351 5.55061L7.07456 5.76378ZM7.46662 4.5863L6.76839 4.95761L7.5565 4.97565C7.5565 4.97565 7.72338 4.92697 7.67927 4.73594C7.63517 4.54491 7.46662 4.5863 7.46662 4.5863ZM6.7041 4.0935L7.48038 3.94256C7.48038 3.94256 7.65367 3.95226 7.63999 4.14784C7.62631 4.34341 7.4525 4.34117 7.4525 4.34117L6.7041 4.0935ZM7.67387 3.33065L6.88739 3.24804L7.53068 3.7037C7.53068 3.7037 7.69623 3.75666 7.76649 3.57363C7.83675 3.3906 7.67387 3.33065 7.67387 3.33065ZM7.30703 2.48969L8.02949 2.8113C8.02949 2.8113 8.16588 2.91864 8.0425 3.071C7.91912 3.22337 7.77803 3.12184 7.77803 3.12184L7.30703 2.48969ZM8.51477 2.41854L7.9179 1.89975L8.1835 2.64198C8.1835 2.64198 8.28874 2.78033 8.45128 2.67069C8.61381 2.56106 8.51477 2.41854 8.51477 2.41854ZM8.6688 1.52286L9.08791 2.19348C9.08791 2.19348 9.14095 2.35874 8.95346 2.41606C8.76597 2.47338 8.70578 2.31031 8.70578 2.31031L8.6688 1.52286Z" fill="#FFE402"/>
<path d="M5.77412 4L6.49571 4.07298C6.14942 6.42001 7.08334 7.47745 9.51392 7.47745C11.9743 7.47745 13.1136 6.37204 13.1136 4C13.1136 4 13.6258 3.97095 13.6217 4.07298C13.5112 6.80213 12.3399 8.55396 9.44227 8.55396C6.40658 8.55396 5.33795 6.95624 5.77412 4Z" fill="#FFE402"/>
<path d="M5.98963 5.40001L6.67114 5.47299C6.34409 7.82002 7.22613 8.87746 9.52171 8.87746C11.8454 8.87746 12.9215 7.77205 12.9215 5.40001C12.9215 5.40001 13.4052 5.37096 13.4013 5.47299C13.297 8.20213 12.1907 9.95397 9.45404 9.95397C6.58696 9.95397 5.57769 8.35624 5.98963 5.40001Z" fill="#FFE402"/>
</g>
</g>
<defs>
<clipPath id="clip0_537_2507">
<rect width="16" height="12" fill="white"/>
</clipPath>
</defs>
</svg>
