<svg width="16" height="12" viewBox="0 0 16 12" fill="none" xmlns="http://www.w3.org/2000/svg">
<g clip-path="url(#clip0_537_1753)">
<rect width="16" height="12" fill="white"/>
<path fill-rule="evenodd" clip-rule="evenodd" d="M0 0V12H16V0H0Z" fill="#F7FCFF"/>
<mask id="mask0_537_1753" style="mask-type:luminance" maskUnits="userSpaceOnUse" x="0" y="0" width="16" height="12">
<path fill-rule="evenodd" clip-rule="evenodd" d="M0 0V12H16V0H0Z" fill="white"/>
</mask>
<g mask="url(#mask0_537_1753)">
<path fill-rule="evenodd" clip-rule="evenodd" d="M0 0V3H16V0H0Z" fill="#BF2714"/>
<path fill-rule="evenodd" clip-rule="evenodd" d="M0 9V12H16V9H0Z" fill="#BF2714"/>
<mask id="mask1_537_1753" style="mask-type:luminance" maskUnits="userSpaceOnUse" x="5" y="3" width="6" height="6">
<path fill-rule="evenodd" clip-rule="evenodd" d="M8 9C9.65685 9 11 7.65685 11 6C11 4.34315 9.65685 3 8 3C6.34315 3 5 4.34315 5 6C5 7.65685 6.34315 9 8 9Z" fill="white"/>
</mask>
<g mask="url(#mask1_537_1753)">
<path fill-rule="evenodd" clip-rule="evenodd" d="M7.019 6.68761L7.23875 3.07451C5.95054 3.33895 5 4.31377 5 6.10203C5 7.04538 5.627 6.93308 6.55266 6.76727C6.7009 6.74072 6.85679 6.71279 7.019 6.68761ZM8.44716 3.02693L8.95816 6.69934C9.14281 6.73305 9.31941 6.77148 9.48601 6.80773C10.3904 7.00452 11 7.13715 11 6.10203C11 4.25666 9.89193 3.20442 8.44716 3.02693Z" fill="#FA8F21"/>
<path fill-rule="evenodd" clip-rule="evenodd" d="M8 9C9.65685 9 11 8.10457 11 7C11 5.89543 9.65685 5 8 5C6.34315 5 5 5.89543 5 7C5 8.10457 6.34315 9 8 9Z" fill="#5277B9"/>
<path fill-rule="evenodd" clip-rule="evenodd" d="M5.27486 6.88238C5.24749 6.79665 5.34009 6.72222 5.41793 6.76739L5.60477 6.87582C5.63264 6.89199 5.66667 6.89349 5.69585 6.87983L6.15708 6.66387C6.18941 6.64873 6.22741 6.6523 6.25635 6.67319L6.7546 7.03279L7.44333 6.66197C7.46987 6.64768 7.5015 6.64635 7.52915 6.65836L8.04786 6.8837C8.07408 6.89509 8.10396 6.89451 8.12971 6.88211L8.59506 6.65811C8.6199 6.64615 8.64861 6.64516 8.67421 6.65539L9.24993 6.88536C9.27587 6.89572 9.305 6.89456 9.33003 6.88218L9.776 6.66155C9.8042 6.6476 9.83737 6.64798 9.86524 6.66257L10.2743 6.87678C10.3039 6.89227 10.3393 6.89169 10.3684 6.87522L10.5811 6.75472C10.6569 6.71176 10.747 6.78134 10.7247 6.86556L10.6802 7.03279H5.32287L5.27486 6.88238Z" fill="#5277B9"/>
<path fill-rule="evenodd" clip-rule="evenodd" d="M5.27298 7.47532C5.24641 7.38907 5.34034 7.31556 5.41768 7.36208L5.58767 7.46433C5.61617 7.48147 5.65139 7.48305 5.68131 7.46853L6.11993 7.25566C6.15303 7.2396 6.19233 7.24335 6.22179 7.26539L6.69977 7.62295L7.3616 7.25362C7.38878 7.23845 7.42153 7.23704 7.44991 7.24982L7.94479 7.47265C7.97172 7.48477 8.00266 7.48415 8.02909 7.47097L8.47292 7.24952C8.49841 7.23681 8.52815 7.23576 8.55446 7.24666L9.10455 7.4744C9.13121 7.48544 9.16137 7.48421 9.18705 7.47105L9.61191 7.25319C9.64081 7.23837 9.67517 7.23877 9.70371 7.25427L10.0925 7.4653C10.1228 7.48175 10.1595 7.48113 10.1892 7.46368L10.3843 7.34915C10.4597 7.30487 10.5511 7.37368 10.5294 7.4584L10.4872 7.62295H5.31845L5.27298 7.47532Z" fill="#5277B9"/>
<path fill-rule="evenodd" clip-rule="evenodd" d="M5.37064 7.86877C5.34407 7.78251 5.43799 7.70901 5.51534 7.75553L5.68533 7.85777C5.71382 7.87491 5.74905 7.87649 5.77897 7.86197L6.21758 7.64911C6.25069 7.63305 6.28999 7.6368 6.31945 7.65884L6.79742 8.0164L7.45926 7.64706C7.48644 7.6319 7.51919 7.63049 7.54757 7.64327L8.04245 7.86609C8.06937 7.87822 8.10032 7.8776 8.12674 7.86442L8.57058 7.64297C8.59606 7.63026 8.62581 7.62921 8.65212 7.64011L9.2022 7.86785C9.22886 7.87889 9.25903 7.87766 9.28471 7.86449L9.70957 7.64664C9.73847 7.63182 9.77282 7.63222 9.80137 7.64771L10.1902 7.85875C10.2205 7.8752 10.2572 7.87458 10.2869 7.85712L10.4819 7.7426C10.5574 7.69832 10.6488 7.76713 10.627 7.85185L10.5848 8.0164H5.41611L5.37064 7.86877Z" fill="#5277B9"/>
<path fill-rule="evenodd" clip-rule="evenodd" d="M5.96146 8.26221C5.93489 8.17595 6.02881 8.10244 6.10616 8.14896L6.27615 8.25121C6.30464 8.26835 6.33987 8.26993 6.36979 8.25541L6.8084 8.04254C6.84151 8.02648 6.88081 8.03023 6.91027 8.05227L7.38824 8.40983L8.05008 8.0405C8.07726 8.02533 8.11001 8.02392 8.13839 8.0367L8.63327 8.25953C8.66019 8.27165 8.69114 8.27104 8.71756 8.25785L9.1614 8.0364C9.18688 8.02369 9.21663 8.02264 9.24294 8.03354L9.79302 8.26128C9.81968 8.27232 9.84985 8.27109 9.87553 8.25793L10.3004 8.04007C10.3293 8.02525 10.3636 8.02565 10.3922 8.04115L10.781 8.25218C10.8113 8.26863 10.848 8.26801 10.8777 8.25056L11.0728 8.13603C11.1482 8.09175 11.2396 8.16056 11.2179 8.24528L11.1757 8.40983H6.00693L5.96146 8.26221Z" fill="#5277B9"/>
<path fill-rule="evenodd" clip-rule="evenodd" d="M5.17435 8.75401C5.14778 8.66775 5.2417 8.59425 5.31905 8.64077L5.48904 8.74301C5.51753 8.76015 5.55276 8.76173 5.58268 8.74721L6.02129 8.53435C6.0544 8.51829 6.0937 8.52204 6.12316 8.54408L6.60114 8.90164L7.26297 8.5323C7.29015 8.51714 7.3229 8.51573 7.35128 8.52851L7.84616 8.75133C7.87308 8.76346 7.90403 8.76284 7.93045 8.74966L8.37429 8.52821C8.39977 8.5155 8.42952 8.51445 8.45583 8.52534L9.00591 8.75309C9.03258 8.76413 9.06274 8.7629 9.08842 8.74973L9.51328 8.53188C9.54218 8.51706 9.57653 8.51746 9.60508 8.53295L9.99389 8.74399C10.0242 8.76044 10.0609 8.75982 10.0906 8.74236L10.2857 8.62784C10.3611 8.58355 10.4525 8.65237 10.4307 8.73709L10.3886 8.90164H5.21982L5.17435 8.75401Z" fill="#5277B9"/>
<path d="M6.33398 4.72292H6.83398L6.8224 6.69897C6.90634 6.96503 7.0261 7.06897 7.21164 7.06897V7.56897C6.78948 7.56897 6.4908 7.30973 6.33398 6.77419V4.72292Z" fill="#FF0000"/>
<path d="M9.59668 4.72292H9.09668L9.10826 6.69897C9.02432 6.96503 8.90456 7.06897 8.71902 7.06897V7.56897C9.14119 7.56897 9.43986 7.30973 9.59668 6.77419V4.72292Z" fill="#FF0000"/>
<path fill-rule="evenodd" clip-rule="evenodd" d="M8.36264 3.45432C8.36264 3.45432 7.5332 3.23743 7.5332 3.7874C7.5332 4.33737 7.5332 5.51847 7.5332 5.51847L8.50019 5.80564V4.39074C8.50019 4.39074 8.01669 4.09531 8.01669 3.86428C8.01669 3.63324 8.36264 3.45432 8.36264 3.45432Z" fill="#FF0000"/>
<path d="M6.9668 6.44533L7.28214 6.04236" stroke="black" stroke-width="0.5"/>
<path d="M7.2543 6.43204L6.95215 6.02667" stroke="black" stroke-width="0.5"/>
<path d="M7.41895 6.44533L7.73429 6.04236" stroke="black" stroke-width="0.5"/>
<path d="M7.70645 6.43204L7.4043 6.02667" stroke="black" stroke-width="0.5"/>
<path d="M7.85254 6.44533L8.16788 6.04236" stroke="black" stroke-width="0.5"/>
<path d="M8.14005 6.43204L7.83789 6.02667" stroke="black" stroke-width="0.5"/>
<path d="M8.30469 6.44533L8.62003 6.04236" stroke="black" stroke-width="0.5"/>
<path d="M8.5922 6.43204L8.29004 6.02667" stroke="black" stroke-width="0.5"/>
<path d="M8.75684 6.44533L9.07218 6.04236" stroke="black" stroke-width="0.5"/>
<path d="M9.04434 6.43204L8.74219 6.02667" stroke="black" stroke-width="0.5"/>
</g>
</g>
</g>
<defs>
<clipPath id="clip0_537_1753">
<rect width="16" height="12" fill="white"/>
</clipPath>
</defs>
</svg>
