<svg width="23" height="12" viewBox="0 0 23 12" fill="none" xmlns="http://www.w3.org/2000/svg">
    <path fill-rule="evenodd" clip-rule="evenodd"
        d="M4.84753 0C4.33487 0 3.91928 0.383756 3.91928 0.857143V0.952381L0 1.38095L3.91928 1.80952V2.42857L0 2.85714L3.91928 3.33333V3.90476L0 4.38095L3.91928 4.90476V6.38095C3.91928 6.48615 4.01164 6.57143 4.12556 6.57143H22.7937C22.9076 6.57143 23 6.48615 23 6.38095V5.74483C23 5.51229 22.8977 5.28973 22.7165 5.1282L18.7832 1.62147C18.6102 1.46718 18.379 1.38095 18.1385 1.38095H16.3991V0.857143C16.3991 0.383756 15.9835 0 15.4709 0H4.84753ZM17.7399 2.38095C17.569 2.38095 17.4305 2.50887 17.4305 2.66667V5.04762C17.4305 5.20541 17.569 5.33333 17.7399 5.33333H20.9122C21.1879 5.33333 21.3259 5.02558 21.131 4.84559L18.5525 2.46464C18.4945 2.41105 18.4158 2.38095 18.3337 2.38095H17.7399Z"
        fill="white" />
    <path
        d="M3.91928 7.52381C3.91928 7.26082 4.15017 7.04762 4.43498 7.04762H22.4843C22.7691 7.04762 23 7.26082 23 7.52381V9.33333C23 9.59633 22.7691 9.80952 22.4843 9.80952H21.2058C20.9866 8.67266 19.9108 7.80952 18.6166 7.80952C17.3224 7.80952 16.2466 8.67266 16.0274 9.80952H11.0982C10.879 8.67266 9.80313 7.80952 8.50897 7.80952C7.2148 7.80952 6.13896 8.67266 5.91975 9.80952H4.43498C4.15017 9.80952 3.91928 9.59633 3.91928 9.33333V7.52381Z"
        fill="white" />
    <path
        d="M10.417 10.2381C10.417 11.2112 9.56277 12 8.50897 12C7.45517 12 6.6009 11.2112 6.6009 10.2381C6.6009 9.26502 7.45517 8.47619 8.50897 8.47619C9.56277 8.47619 10.417 9.26502 10.417 10.2381ZM7.4999 10.2381C7.4999 10.7527 7.95168 11.1699 8.50897 11.1699C9.06626 11.1699 9.51803 10.7527 9.51803 10.2381C9.51803 9.7235 9.06626 9.30633 8.50897 9.30633C7.95168 9.30633 7.4999 9.7235 7.4999 10.2381Z"
        fill="white" />
    <path
        d="M20.5247 10.2381C20.5247 11.2112 19.6704 12 18.6166 12C17.5628 12 16.7085 11.2112 16.7085 10.2381C16.7085 9.26502 17.5628 8.47619 18.6166 8.47619C19.6704 8.47619 20.5247 9.26502 20.5247 10.2381ZM17.6075 10.2381C17.6075 10.7527 18.0593 11.1699 18.6166 11.1699C19.1739 11.1699 19.6257 10.7527 19.6257 10.2381C19.6257 9.7235 19.1739 9.30633 18.6166 9.30633C18.0593 9.30633 17.6075 9.7235 17.6075 10.2381Z"
        fill="white" />
</svg>