<svg width="30" height="26" viewBox="0 0 30 26" fill="none" xmlns="http://www.w3.org/2000/svg">
    <path fill-rule="evenodd" clip-rule="evenodd"
        d="M30 6.80329C30 8.44337 30 10.0835 30 11.7235C27.5 11.7235 25 11.7235 22.5 11.7235C22.522 11.0722 22.4927 10.4243 22.4121 9.77973C22.1019 9.15875 21.6429 9.00689 21.0352 9.32416C20.8825 9.44188 20.7751 9.59374 20.7129 9.77973C20.6323 10.4243 20.603 11.0722 20.625 11.7235C16.875 11.7235 13.125 11.7235 9.375 11.7235C9.39697 11.0722 9.36768 10.4243 9.28711 9.77973C8.97686 9.15875 8.51789 9.00689 7.91016 9.32416C7.75746 9.44188 7.65006 9.59374 7.58789 9.77973C7.50732 10.4243 7.47803 11.0722 7.5 11.7235C5 11.7235 2.5 11.7235 0 11.7235C0 10.0835 0 8.44337 0 6.80329C0.424226 5.17931 1.43985 4.21756 3.04688 3.91797C5.35148 3.8876 7.65615 3.87745 9.96094 3.8876C9.9259 3.17125 9.97471 2.46257 10.1074 1.76157C10.4702 0.758459 11.1635 0.181394 12.1875 0.0303734C14.0625 -0.0101244 15.9375 -0.0101244 17.8125 0.0303734C19.0528 0.263222 19.7852 1.02252 20.0098 2.30826C20.0391 2.83432 20.0488 3.36076 20.0391 3.8876C22.3438 3.87745 24.6485 3.8876 26.9531 3.91797C28.5602 4.21756 29.5758 5.17931 30 6.80329ZM12.5391 2.67272C14.1797 2.67272 15.8203 2.67272 17.4609 2.67272C17.4609 3.07768 17.4609 3.48264 17.4609 3.8876C15.8203 3.8876 14.1797 3.8876 12.5391 3.8876C12.5391 3.48264 12.5391 3.07768 12.5391 2.67272Z"
        fill="white" />
    <path fill-rule="evenodd" clip-rule="evenodd"
        d="M0 13.6066C2.5 13.6066 5 13.6066 7.5 13.6066C7.46719 14.1827 7.516 14.7496 7.64648 15.3074C8.27168 15.9958 8.81853 15.935 9.28711 15.1252C9.36504 14.6226 9.39434 14.1164 9.375 13.6066C13.125 13.6066 16.875 13.6066 20.625 13.6066C20.5922 14.1827 20.641 14.7496 20.7715 15.3074C21.3967 15.9958 21.9435 15.935 22.4121 15.1252C22.49 14.6226 22.5193 14.1164 22.5 13.6066C25 13.6066 27.5 13.6066 30 13.6066C30 16.7653 30 19.9239 30 23.0826C29.6264 24.5532 28.728 25.4947 27.3047 25.9072C23.2049 25.9775 19.1033 26.0078 15 25.9983C10.8967 26.0078 6.79512 25.9775 2.69531 25.9072C1.27204 25.4947 0.373598 24.5532 0 23.0826C0 19.9239 0 16.7653 0 13.6066Z"
        fill="white" />
</svg>